<svg width="400" height="277" viewBox="0 0 400 277" fill="none" xmlns="http://www.w3.org/2000/svg">
<rect width="400" height="276.19" rx="5" fill="white"/>
<path d="M0 5C0 2.23858 2.23858 0 5 0H395C397.761 0 400 2.23858 400 5V57.1429H0V5Z" fill="#4361EE"/>
<path d="M156.19 167.619C156.19 203.386 127.195 232.381 91.4284 232.381C55.6614 232.381 26.6665 203.386 26.6665 167.619C26.6665 131.852 55.6614 102.857 91.4284 102.857C127.195 102.857 156.19 131.852 156.19 167.619ZM45.044 167.619C45.044 193.236 65.811 214.003 91.4284 214.003C117.046 214.003 137.813 193.236 137.813 167.619C137.813 142.002 117.046 121.235 91.4284 121.235C65.811 121.235 45.044 142.002 45.044 167.619Z" fill="#4361EE" fill-opacity="0.3"/>
<path d="M134.791 215.721C127.061 222.689 117.766 227.692 107.693 230.305C97.6196 232.919 87.0648 233.066 76.9224 230.735C66.78 228.404 57.3487 223.663 49.4273 216.914C41.5059 210.165 35.3277 201.606 31.4159 191.962C27.504 182.319 25.9739 171.874 26.9549 161.514C27.936 151.153 31.3993 141.182 37.0517 132.444C42.7041 123.706 50.379 116.459 59.4265 111.316C68.474 106.174 78.6275 103.288 89.0271 102.902L89.7085 121.267C82.26 121.543 74.9877 123.61 68.5077 127.293C62.0276 130.977 56.5306 136.167 52.4822 142.426C48.4338 148.684 45.9532 155.826 45.2505 163.246C44.5479 170.667 45.6438 178.147 48.4456 185.054C51.2474 191.962 55.6724 198.092 61.3459 202.926C67.0195 207.76 73.7745 211.155 81.0388 212.825C88.303 214.494 95.8627 214.389 103.077 212.517C110.292 210.645 116.95 207.062 122.486 202.071L134.791 215.721Z" fill="#ECEFFD"/>
<line x1="88.6191" y1="102.857" x2="88.6191" y2="121.905" stroke="white" stroke-width="2"/>
<line x1="122.646" y1="201.233" x2="135.434" y2="215.35" stroke="white" stroke-width="2"/>
<rect x="179.048" y="110.476" width="190.476" height="19.0476" rx="9" fill="#D9D9D9"/>
<rect x="179.048" y="142.857" width="190.476" height="19.0476" rx="9" fill="#D9D9D9"/>
<rect x="179.048" y="175.238" width="190.476" height="19.0476" rx="9" fill="#D9D9D9"/>
<rect x="179.048" y="207.619" width="190.476" height="19.0476" rx="9" fill="#D9D9D9"/>
<circle cx="32.3807" cy="28.5714" r="9.52381" fill="white" fill-opacity="0.15"/>
<circle cx="62.8571" cy="28.5714" r="9.52381" fill="white" fill-opacity="0.15"/>
<circle cx="93.3334" cy="28.5714" r="9.52381" fill="white" fill-opacity="0.15"/>
</svg>
