<svg width="50" height="45" viewBox="0 0 50 45" fill="none" xmlns="http://www.w3.org/2000/svg">
<path d="M37.3369 6.89388C33.6572 6.89388 29.9743 6.92863 26.2946 6.87177C25.2785 6.85597 24.8461 7.18451 24.5337 8.16064C23.669 10.8774 21.2642 12.5801 18.607 12.5295C15.8646 12.479 13.624 10.8237 12.8256 8.01848C12.5321 6.99181 12.0114 6.87493 11.1404 6.88125C7.88039 6.90968 4.62043 6.90336 1.36046 6.88125C0.842903 6.87809 0.00976562 7.13712 0.00976562 6.26524C0.00976562 5.39336 0.842903 5.6524 1.36046 5.64924C4.62043 5.62713 7.88039 5.61765 11.1404 5.64924C12.0114 5.65556 12.5321 5.53868 12.8256 4.512C13.6271 1.70682 15.8678 0.0515131 18.6102 0.000969268C21.2674 -0.0464156 23.6942 1.6468 24.5242 4.37301C24.8682 5.49761 25.4489 5.65872 26.4524 5.6524C33.7077 5.62081 40.9661 5.63345 48.2213 5.63661C48.641 5.63661 49.0639 5.64292 49.4805 5.67767C49.774 5.69978 49.9633 5.91144 49.9949 6.18627C50.0359 6.54639 49.8371 6.79911 49.4805 6.8465C49.1176 6.89388 48.7483 6.88756 48.3791 6.89072C44.6994 6.89072 41.0166 6.89072 37.3369 6.89072V6.89388ZM18.708 1.48569C15.9656 1.47306 13.8607 3.50113 13.826 6.18943C13.7881 8.95354 15.9057 11.0606 18.7112 11.048C21.4189 11.0353 23.5396 8.93459 23.5364 6.26524C23.5364 3.59906 21.4126 1.49833 18.708 1.48569Z" fill="#4361EE"/>
<path d="M14.2896 21.4317C18.4963 21.4317 22.703 21.397 26.9097 21.457C27.929 21.4696 28.3488 21.1569 28.6391 20.165C29.4154 17.5051 31.6813 15.8561 34.3795 15.7993C36.9736 15.7424 39.4636 17.4103 40.2525 20.0102C40.6281 21.2485 41.234 21.5012 42.3827 21.457C44.535 21.3749 46.6936 21.4286 48.849 21.4381C49.3571 21.4381 50.0387 21.3401 49.9819 22.1299C49.9378 22.7743 49.3192 22.6795 48.8616 22.6827C46.5484 22.689 44.232 22.7238 41.922 22.6701C41.0352 22.6479 40.647 22.9449 40.3661 23.801C39.4194 26.6725 37.103 28.372 34.3953 28.3215C31.6087 28.2709 29.447 26.6441 28.5634 23.662C28.2288 22.5311 27.5314 22.689 26.7677 22.689C18.6162 22.689 10.4678 22.689 2.31635 22.689C2.10491 22.689 1.88716 22.7238 1.68834 22.6827C1.09189 22.5563 0.0441588 23.0807 0.0378471 22.0667C0.0315355 21.0432 1.08558 21.457 1.67572 21.4539C5.88244 21.4159 10.0891 21.4349 14.2959 21.4349L14.2896 21.4317ZM34.5026 17.2808C31.7728 17.265 29.6584 19.2931 29.6111 21.9688C29.5637 24.6539 31.6403 26.802 34.3196 26.8431C37.1156 26.8842 39.3058 24.7929 39.3121 22.0762C39.3184 19.4131 37.1945 17.2966 34.5058 17.2808H34.5026Z" fill="#4361EE"/>
<path d="M35.7682 38.4835C31.5615 38.4835 27.3548 38.5151 23.1481 38.4614C22.1382 38.4488 21.6932 38.7583 21.3808 39.7408C20.513 42.4638 18.1208 44.1602 15.4605 44.1191C12.7212 44.0749 10.468 42.4133 9.6727 39.6176C9.38236 38.5972 8.87112 38.4582 7.9938 38.474C5.73423 38.5119 3.4715 38.4961 1.21193 38.474C0.725932 38.4709 0.00955996 38.6415 9.24809e-05 37.8612C-0.00937499 37.0746 0.710153 37.2389 1.19615 37.2357C3.50937 37.2168 5.82575 37.1883 8.13581 37.2452C9.02575 37.2673 9.39498 36.9798 9.65692 36.1048C10.4932 33.3028 12.6991 31.6475 15.4447 31.5906C18.0987 31.5369 20.535 33.2333 21.365 35.9563C21.7059 37.0746 22.2771 37.2483 23.2869 37.2452C31.4889 37.2136 39.6941 37.2262 47.8961 37.2262C48.3158 37.2262 48.7387 37.2262 49.1584 37.2325C49.6223 37.2389 50.0357 37.3621 49.9884 37.9244C49.9505 38.3761 49.5718 38.474 49.171 38.474C47.9623 38.474 46.7536 38.4803 45.5418 38.4803C42.2818 38.4803 39.0219 38.4803 35.7619 38.4803L35.7682 38.4835ZM15.593 33.0753C12.8601 33.05 10.7362 35.0623 10.6731 37.7348C10.61 40.4168 12.6834 42.587 15.3563 42.6344C18.1587 42.685 20.3489 40.6158 20.3741 37.8959C20.3993 35.2392 18.2755 33.0974 15.593 33.0753Z" fill="#4361EE"/>
</svg>
