<svg width="50" height="50" viewBox="0 0 50 50" fill="none" xmlns="http://www.w3.org/2000/svg">
<path d="M50 24.9587C49.9874 37.8969 40.0012 49.8455 24.9653 49.9987C11.2146 50.1394 0.0208026 38.8156 2.87627e-05 25.0765C-0.0207451 11.2568 11.2141 -0.0108961 25.0047 7.90741e-06C38.7181 0.0109119 49.9617 11.2382 50 24.9587ZM24.9997 48.5534C38.1321 48.5452 48.6923 38.0452 48.6847 25.0034C48.677 11.9606 38.1179 1.48677 24.9713 1.48186C11.8335 1.47696 1.31097 11.9519 1.31534 25.0318C1.31917 38.1046 11.8488 48.5616 24.9997 48.5534Z" fill="black"/>
<path d="M13.3983 20.3693C13.6787 20.6239 14.0335 20.92 14.3582 21.2454C17.5629 24.4599 20.7927 27.6505 23.9421 30.9178C24.767 31.7733 25.2175 31.7553 26.0337 30.9102C29.2225 27.6079 32.4823 24.3738 35.7422 21.1408C36.1107 20.7755 36.4321 19.8928 37.2182 20.6544C38.0213 21.4325 37.1056 21.7525 36.7514 22.1101C33.1531 25.7428 29.5062 29.3275 25.9183 32.9694C25.1978 33.7005 24.7528 33.6771 24.046 32.9607C20.4182 29.2844 16.739 25.6578 13.0981 21.9946C12.8149 21.7094 12.1884 21.4902 12.5514 20.8862C12.7045 20.6321 12.9194 20.3704 13.3983 20.3693Z" fill="black"/>
</svg>
