<svg width="50" height="68" viewBox="0 0 50 68" fill="none" xmlns="http://www.w3.org/2000/svg">
<g clip-path="url(#clip0_671_381)">
<path d="M0.0082504 33.5364C0.0082504 25.4652 -0.00433138 17.3898 0.0124443 9.31866C0.0250261 3.45599 3.43469 0.0336409 9.26005 0.0125673C14.7751 -0.00429159 20.2943 0.0294261 25.8135 -7.68755e-05C27.9566 -0.012721 29.7348 0.691137 31.253 2.23372C36.7596 7.81822 42.2914 13.3774 47.8484 18.9114C49.333 20.3907 49.9999 22.1188 49.9957 24.1966C49.9789 35.5679 50.0166 46.9392 49.9747 58.3147C49.9579 63.7644 46.4476 67.3005 41.0458 67.3216C30.3597 67.3637 19.6694 67.3595 8.98326 67.3216C3.45985 67.3047 0.0250261 63.7812 0.0082504 58.1756C-0.0169132 49.9612 -0.000137452 41.7509 -0.000137452 33.5364H0.0082504ZM1.76131 33.5406C1.76131 41.7593 1.74454 49.9738 1.76551 58.1925C1.77809 62.854 4.26928 65.3322 8.90357 65.3365C19.5981 65.3449 30.2884 65.3449 40.9829 65.3365C45.6382 65.3365 48.2007 62.8919 48.2174 58.2642C48.2636 47.1668 48.2091 36.0695 48.2594 24.9721C48.2636 23.5349 47.8819 23.0165 46.3847 23.046C41.9853 23.1387 37.5775 23.0924 33.178 23.0713C29.2609 23.0544 27.2897 21.044 27.273 17.0653C27.2562 12.7115 27.2143 8.35349 27.2981 4.0039C27.3275 2.47818 26.9333 1.93448 25.3144 1.96398C19.9336 2.06513 14.5528 1.9977 9.17198 2.00191C4.14766 2.00191 1.77389 4.4043 1.76551 9.51675C1.75712 17.5247 1.76551 25.5285 1.76551 33.5364L1.76131 33.5406ZM46.8334 21.0398C46.8922 20.8712 46.9509 20.7026 47.0096 20.534C41.4443 14.9453 35.8747 9.35659 30.3052 3.77631C30.0284 3.49814 29.7138 3.0303 29.2735 3.34219C29.0722 3.48549 29.0344 3.95754 29.0344 4.28207C29.026 8.83397 29.0009 13.3859 29.0596 17.9378C29.0806 19.5984 30.02 20.9386 31.664 20.9892C36.7135 21.1367 41.7714 21.044 46.8293 21.044L46.8334 21.0398Z" fill="white"/>
<path d="M33.4843 39.2559C35.1787 38.3202 36.8059 37.4099 38.4373 36.5206C40.4504 35.4247 41.545 35.9684 41.5786 38.2022C41.6415 42.1978 41.6373 46.1975 41.5786 50.1931C41.545 52.4311 40.4504 52.9874 38.4499 51.9C36.8101 51.0107 35.1829 50.1088 33.4969 49.1773C32.5197 54.1338 31.8361 54.686 26.925 54.686C23.0876 54.686 19.2501 54.6944 15.4127 54.686C11.9737 54.6733 10.5226 53.2698 10.4974 49.8981C10.468 46.1132 10.4722 42.3242 10.4974 38.5394C10.5226 35.155 11.9653 33.7473 15.3959 33.7346C19.2334 33.722 23.0708 33.7346 26.9082 33.7346C31.8445 33.7346 32.57 34.3205 33.4843 39.2643V39.2559ZM21.7875 52.6924C24.0186 52.6924 26.254 52.7051 28.4852 52.6924C30.7499 52.6756 31.4209 52.0813 31.4461 49.8854C31.488 46.1006 31.4461 42.3158 31.4628 38.5268C31.4712 36.6428 30.6786 35.6818 28.6907 35.7071C24.0857 35.7619 19.4808 35.745 14.8759 35.7155C13.0054 35.7029 12.2295 36.6175 12.2421 38.4298C12.263 42.2863 12.2714 46.1427 12.2421 49.9992C12.2253 51.9759 13.1773 52.7683 15.0939 52.7135C17.3251 52.6503 19.5563 52.7008 21.7916 52.7008L21.7875 52.6924ZM39.8465 44.263C39.8465 42.7878 39.8004 41.3127 39.8591 39.8417C39.9178 38.3835 39.5613 37.8187 38.1228 38.7375C36.8898 39.5299 35.5981 40.2295 34.3357 40.9797C33.7989 41.3 33.3333 41.6035 33.2075 42.3579C32.6665 45.599 33.1656 46.737 36.0552 48.4356C36.7766 48.8612 37.5231 49.249 38.2235 49.7126C39.5697 50.6061 39.8968 50.0161 39.8591 48.68C39.8171 47.2091 39.8507 45.7339 39.8507 44.2588L39.8465 44.263Z" fill="white"/>
</g>
<defs>
<clipPath id="clip0_671_381">
<rect width="50" height="67.3469" fill="white"/>
</clipPath>
</defs>
</svg>
