<svg width="50" height="66" viewBox="0 0 50 66" fill="none" xmlns="http://www.w3.org/2000/svg">
<path d="M10.5319 36.6007C8.22329 36.5998 5.91498 36.6017 3.60667 36.5991C2.10705 36.5974 0.797465 36.1962 0.217503 34.7073C-0.354655 33.2382 0.256529 32.1042 1.41374 31.1013C12.9061 21.1427 24.3872 11.1722 35.8548 1.18645C37.2028 0.0125359 38.5921 -0.494345 40.1793 0.622774C41.7729 1.74452 41.6972 3.23412 40.9985 4.8208C37.7763 12.1384 34.5955 19.4738 31.3129 26.7659C30.6525 28.2327 30.8748 28.5976 32.5176 28.5666C36.8532 28.4847 41.1912 28.5461 45.5286 28.5359C47.2712 28.5319 48.9221 28.6683 49.7237 30.5274C50.5494 32.4427 49.3854 33.5806 48.0666 34.7139C36.8478 44.3568 25.6429 54.0147 14.4305 63.6645C13.4898 64.4742 12.5796 65.3794 11.1353 65.0997C8.93696 64.674 7.94366 62.772 8.90812 60.5295C11.3376 54.8808 13.8454 49.2638 16.3214 43.634C17.1467 41.7574 17.9357 39.8646 18.8089 38.0091C19.2993 36.9673 19.1537 36.5512 17.8767 36.5832C15.4299 36.6443 12.9804 36.6011 10.5319 36.6001V36.6007ZM11.6332 34.6677C14.0813 34.6677 16.5298 34.6644 18.9779 34.6686C21.8448 34.6736 22.0172 34.8981 20.92 37.4009C17.5451 45.0985 14.1485 52.7872 10.7736 60.4849C10.4033 61.3296 9.709 62.2694 10.8733 63.0216C11.8436 63.6484 12.5644 63.0044 13.2662 62.3972C24.5559 52.6281 35.8518 42.8653 47.1395 33.0935C47.6984 32.6098 48.4481 32.1511 48.0622 31.2371C47.6876 30.3498 46.8398 30.4746 46.077 30.4739C41.1105 30.4709 36.144 30.4733 31.1775 30.4716C27.9963 30.4706 27.9044 30.355 29.1298 27.5618C32.506 19.8651 35.9 12.1754 39.2803 4.48035C39.6343 3.67463 40.1752 2.78866 39.151 2.10511C38.2744 1.51997 37.5917 2.09454 36.9394 2.66152C25.5149 12.5914 14.086 22.5157 2.66088 32.4443C2.19935 32.8455 1.59496 33.2263 1.87255 33.9613C2.1868 34.7931 2.97241 34.6617 3.65859 34.6637C6.31678 34.6713 8.97497 34.6667 11.6328 34.6677H11.6332Z" fill="#4361EE"/>
</svg>
