<svg width="50" height="49" viewBox="0 0 50 49" fill="none" xmlns="http://www.w3.org/2000/svg">
<path d="M41.2369 46.2285C40.5009 41.7648 39.7898 37.222 38.9779 32.699C38.7919 31.6657 39.0172 31.0028 39.7518 30.2872C42.8175 27.3035 45.8177 24.2539 48.8572 21.2425C49.6115 20.4952 50.2492 19.7361 49.9035 18.5658C49.5538 17.3823 48.607 17.1227 47.5542 16.9633C43.247 16.3122 38.9465 15.6045 34.6315 15.0088C33.7462 14.8862 33.3049 14.5383 32.9435 13.7687C31.097 9.84528 29.1916 5.94957 27.3399 2.02882C26.8318 0.953414 26.2241 -0.0271037 24.9342 0.000572182C23.7294 0.0269302 23.1414 0.958685 22.6569 1.98665C20.8523 5.81778 18.981 9.61597 17.1934 13.455C16.7443 14.4197 16.2296 14.906 15.0851 15.0431C10.9115 15.5439 6.75761 16.2094 2.59846 16.817C1.50629 16.9764 0.486151 17.2677 0.108999 18.4947C-0.240652 19.632 0.296265 20.4307 1.07414 21.1977C4.15683 24.2367 7.18714 27.3285 10.2895 30.3478C10.9966 31.0371 11.1813 31.6908 11.0137 32.6449C10.2528 36.9703 9.5797 41.3115 8.8267 45.6381C8.62372 46.8005 8.76253 47.7507 9.76303 48.4861C10.7295 49.1964 11.5715 48.7629 12.445 48.2924C16.155 46.2905 19.8898 44.3334 23.5762 42.2867C24.5623 41.7398 25.3284 41.6765 26.3538 42.2498C30.1646 44.3848 34.0265 46.4289 37.891 48.4663C39.6602 49.3994 41.339 48.2805 41.2369 46.2272V46.2285ZM10.0669 46.2417C10.1402 45.787 10.2188 45.2836 10.3026 44.7788C10.9835 40.6472 11.6265 36.509 12.369 32.3893C12.5746 31.248 12.3075 30.4651 11.493 29.6691C8.35919 26.6103 5.27519 23.5014 2.18595 20.3977C1.77475 19.9852 1.14486 19.6241 1.41594 18.8742C1.65689 18.2074 2.29334 18.2917 2.83549 18.2139C6.99595 17.6117 11.1512 16.9725 15.3195 16.4242C16.7089 16.241 17.5771 15.6678 18.1861 14.338C19.9068 10.5833 21.7468 6.88264 23.5919 3.18725C23.9272 2.51776 23.9586 1.41204 25.0272 1.4384C25.9884 1.46212 26.0382 2.48218 26.3564 3.12136C28.2173 6.86683 30.0808 10.6123 31.8264 14.4118C32.417 15.6954 33.2761 16.2318 34.5909 16.4111C38.8063 16.9843 43.0139 17.6209 47.2255 18.2245C47.7728 18.3036 48.4001 18.2377 48.6293 18.9045C48.886 19.6491 48.2705 20.0129 47.8527 20.428C44.8892 23.3696 41.9715 26.3612 38.919 29.2065C37.6736 30.3663 37.409 31.5208 37.7129 33.1365C38.4973 37.2998 39.1272 41.4933 39.8121 45.675C39.8998 46.2101 40.1918 46.8005 39.6313 47.242C39.0054 47.7336 38.4789 47.2565 37.959 46.9797C34.1941 44.9739 30.4121 42.997 26.6877 40.9187C25.4882 40.2492 24.5191 40.2295 23.3051 40.9095C19.4956 43.0458 15.6272 45.0754 11.7667 47.1168C10.592 47.7375 10.0328 47.4331 10.0669 46.2404V46.2417Z" fill="#4361EE"/>
</svg>
