<svg width="200" height="126" viewBox="0 0 200 126" fill="none" xmlns="http://www.w3.org/2000/svg">
<path fill-rule="evenodd" clip-rule="evenodd" d="M5 0C2.23858 0 0 2.23857 0 5V108.656C0 111.418 2.23857 113.656 5 113.656H29.2756L30.2962 125.302L46.9222 113.656H195C197.761 113.656 200 111.418 200 108.656V5C200 2.23858 197.761 0 195 0H5Z" fill="#4361EE"/>
<rect width="167.089" height="10.1266" rx="5.06329" transform="matrix(1 0 0 -1 17.7214 86.076)" fill="white" fill-opacity="0.5"/>
<rect width="167.089" height="10.1266" rx="5.06329" transform="matrix(1 0 0 -1 17.7214 63.2912)" fill="white" fill-opacity="0.5"/>
<rect width="167.089" height="10.1266" rx="5.06329" transform="matrix(1 0 0 -1 17.7214 40.5063)" fill="white" fill-opacity="0.5"/>
</svg>
