<svg width="50" height="84" viewBox="0 0 50 84" fill="none" xmlns="http://www.w3.org/2000/svg">
<g clip-path="url(#clip0_671_378)">
<path d="M0.0050457 41.8174C0.0050457 31.7697 -0.0100737 21.7273 0.0050457 11.6796C0.025205 4.21855 4.0873 0.0263252 11.2892 0.0105847C20.4365 -0.00515583 29.5837 -0.00515583 38.7259 0.0105847C45.8724 0.0263252 49.9798 4.28676 49.9849 11.7373C50 31.8274 50 51.9228 49.9849 72.013C49.9798 79.5947 45.8825 83.8026 38.5395 83.8079C29.4779 83.8184 20.4163 83.8184 11.3497 83.8079C4.0117 83.7974 0.0100855 79.6157 5.88545e-06 71.95C-0.0151136 61.9023 5.88545e-06 51.8599 5.88545e-06 41.8122L0.0050457 41.8174ZM2.11673 41.7912C2.11673 52.1012 2.08649 62.406 2.12681 72.7161C2.14697 78.178 5.22125 81.3209 10.4475 81.3314C20.0988 81.3471 29.745 81.3471 39.3962 81.3314C44.7536 81.3209 47.853 78.2043 47.8631 72.5639C47.9085 52.1222 47.9085 31.6805 47.8631 11.2441C47.848 5.60896 44.7485 2.50283 39.3811 2.49759C29.9012 2.48185 20.4163 2.48709 10.9364 2.49759C5.04486 2.49759 2.13185 5.51452 2.12177 11.6586C2.10665 21.7063 2.12177 31.7487 2.12177 41.7964L2.11673 41.7912Z" fill="white"/>
<path d="M20.1844 70.8638C20.1441 67.8889 22.2003 65.617 24.9521 65.6065C27.6484 65.596 29.8407 67.9361 29.8205 70.8113C29.8004 73.5817 27.7492 75.8273 25.1285 75.9375C22.4019 76.0529 20.2247 73.8178 20.1844 70.8691V70.8638ZM25.0226 73.4715C26.7513 73.3718 27.6937 72.3801 27.6333 70.6487C27.5829 69.0537 26.6505 68.104 25.0428 68.0935C23.3343 68.083 22.3314 69.0012 22.3213 70.7641C22.3112 72.5376 23.3393 73.4138 25.0176 73.4715H25.0226Z" fill="white"/>
</g>
<defs>
<clipPath id="clip0_671_378">
<rect width="50" height="83.8235" fill="white"/>
</clipPath>
</defs>
</svg>
