<svg width="25" height="22" viewBox="0 0 25 22" fill="none" xmlns="http://www.w3.org/2000/svg">
<path d="M24.8605 11.0395C24.9498 10.9558 25 10.8386 25 10.7158C25 10.593 24.9498 10.4759 24.8605 10.3922L14.1462 0.124298C13.9676 -0.0486933 13.683 -0.0375324 13.5156 0.135459C13.3482 0.30845 13.3538 0.598628 13.5268 0.766039L23.4431 10.2694H0.446429C0.200893 10.2694 0 10.4703 0 10.7158C0 10.9614 0.200893 11.1622 0.446429 11.1622H23.4431L13.5324 20.66C13.3538 20.833 13.3482 21.112 13.5212 21.2906C13.6942 21.4692 13.9732 21.4747 14.1518 21.3018L24.8661 11.0339L24.8605 11.0395Z" fill="white"/>
</svg>
