<svg width="50" height="46" viewBox="0 0 50 46" fill="none" xmlns="http://www.w3.org/2000/svg">
<g clip-path="url(#clip0_671_375)">
<path d="M35.1819 36.6153C30.9083 36.6153 26.6319 36.621 22.3583 36.6153C18.5394 36.6097 16.7429 34.7837 16.7401 30.8947C16.7346 22.4789 16.7346 14.0659 16.7401 5.65006C16.7457 1.85701 18.5589 0.00846663 22.2914 0.00564442C30.3755 -0.00282221 38.4596 0 46.5466 0.00282221C49.0627 0.00282221 49.9833 0.936974 49.9861 3.49672C49.9917 10.5466 49.9721 17.5993 50 24.6492C50.0084 26.3312 49.5676 27.6407 47.7963 28.0725C47.1407 28.2334 47.1993 28.6708 47.1993 29.1365C47.1993 30.8298 47.2439 32.5231 47.1798 34.2136C47.1463 35.128 47.5257 35.3707 48.3291 35.2833C48.6499 35.2494 48.9818 35.2635 49.3026 35.3143C49.6485 35.3679 49.9359 35.5993 49.9163 35.9662C49.8996 36.3247 49.6123 36.5476 49.258 36.5843C48.8898 36.6238 48.516 36.6125 48.145 36.6125C43.8239 36.6125 39.5029 36.6125 35.1819 36.6125V36.6153ZM17.909 28.3942C19.7305 26.859 21.5577 26.7912 23.4407 26.7997C31.1064 26.8336 38.7721 26.8138 46.4378 26.8138C48.4965 26.8138 48.8145 26.509 48.8172 24.4911C48.8228 17.5344 48.8228 10.5776 48.8172 3.62089C48.8172 1.67639 48.4713 1.34055 46.5354 1.34055C38.3592 1.34055 30.1802 1.34055 22.004 1.34055C19.2229 1.34055 17.9118 2.65852 17.909 5.47791C17.9034 11.2606 17.909 17.0405 17.909 22.8232C17.909 24.5532 17.909 26.2832 17.909 28.3999V28.3942ZM33.0339 35.2804C36.9337 35.2804 40.8335 35.2409 44.7306 35.3058C45.8045 35.3228 46.0974 34.9672 46.0472 33.9427C45.9747 32.4441 45.9635 30.9342 46.05 29.4356C46.1142 28.3293 45.6762 28.1233 44.6803 28.1261C37.0202 28.1628 29.3629 28.1431 21.7028 28.1487C19.4795 28.1487 17.8978 29.6614 17.9118 31.7357C17.9257 33.8016 19.5074 35.2691 21.753 35.2748C25.5133 35.2833 29.2736 35.2748 33.0339 35.2748V35.2804Z" fill="white"/>
<path d="M1.38638 36.6689C2.93458 35.4102 4.65016 35.2239 6.455 35.2662C8.82333 35.3227 11.1972 35.3199 13.5656 35.2606C14.4806 35.238 14.9436 35.5823 15.15 36.6153C11.8723 36.6153 8.6448 36.6463 5.41728 36.5983C4.09782 36.5786 2.93458 36.7789 2.03634 37.8627C1.10742 38.9831 0.887045 40.2361 1.45611 41.5457C2.01124 42.8241 2.982 43.7272 4.44373 43.73C12.3912 43.7554 20.3414 43.7329 28.2889 43.7583C29.1146 43.7583 29.3377 43.4281 29.3043 42.6745C29.268 41.8759 29.2959 41.0772 29.3043 40.2757C29.3098 39.889 29.3266 39.5278 29.8761 39.5137C30.4312 39.4995 30.4591 39.8467 30.4591 40.2474C30.4591 41.0461 30.5121 41.8505 30.4508 42.6435C30.3838 43.5127 30.7102 43.8458 31.561 43.7526C31.9236 43.7131 32.3058 43.7413 32.6685 43.8119C32.9502 43.8655 33.1817 44.0969 33.1901 44.3989C33.1985 44.7037 32.9725 44.9464 32.6908 44.9972C32.2835 45.0706 31.8623 45.0734 31.4466 45.0734C22.8464 45.0762 14.249 45.0791 5.64882 45.0734C1.81597 45.0734 0.0111243 43.2474 0.00833472 39.3754C0.00275561 30.9567 0.00275561 22.5409 0.00833472 14.1222C0.0111243 10.3207 1.82155 8.47783 5.54839 8.46372C7.91951 8.45525 10.2906 8.45525 12.659 8.46936C13.122 8.46936 13.7329 8.26334 13.7274 9.13823C13.7218 10.0159 13.1025 9.78733 12.6478 9.79016C9.99773 9.80709 7.34766 9.77887 4.70037 9.80427C2.78673 9.8212 1.21621 11.2125 1.20505 13.1063C1.15763 20.8165 1.19111 28.5296 1.19948 36.2427C1.19948 36.3217 1.26921 36.4008 1.39195 36.6632L1.38638 36.6689Z" fill="white"/>
</g>
<defs>
<clipPath id="clip0_671_375">
<rect width="50" height="45.082" fill="white"/>
</clipPath>
</defs>
</svg>
