<svg width="50" height="51" viewBox="0 0 50 51" fill="none" xmlns="http://www.w3.org/2000/svg">
<g clip-path="url(#clip0_671_370)">
<path d="M4.32214 38.237C4.25304 37.1174 5.04454 36.1632 5.70413 35.1486C6.75633 33.5266 6.39199 32.6869 4.49175 32.3338C1.16553 31.7168 0.238965 30.7181 0.0536522 27.2831C-0.034293 25.6483 -0.00916578 23.9976 0.11647 22.3659C0.282938 20.2604 1.34456 19.1663 3.40813 18.7115C3.66255 18.6542 3.91382 18.5715 4.16823 18.5206C6.61499 18.0308 6.85998 17.4106 5.44344 15.2669C3.87613 12.891 3.93266 11.4725 5.71356 9.24289C6.838 7.83707 8.09436 6.56485 9.53603 5.49299C11.3923 4.11263 12.6424 4.09354 14.5646 5.36895C14.9572 5.62976 15.3247 5.94145 15.7362 6.16727C16.8638 6.79067 17.7935 6.37083 18.095 5.10814C18.2552 4.44022 18.3274 3.75004 18.497 3.0853C18.8896 1.53954 19.923 0.613998 21.4369 0.356371C23.5539 -0.00303333 25.6834 -0.15252 27.8349 0.206884C30.1215 0.588553 31.0292 1.36143 31.5789 3.61646C32.4269 7.11191 32.5808 7.20732 35.6024 5.23537C37.2388 4.1667 38.7213 4.25257 40.2352 5.38804C41.9281 6.66026 43.4263 8.13287 44.6576 9.8631C45.9077 11.6188 45.9139 13.0055 44.7424 14.8439C44.5445 15.1556 44.3278 15.4545 44.133 15.7694C43.1814 17.2738 43.5426 18.1326 45.2418 18.4443C45.7035 18.5302 46.1621 18.6415 46.6206 18.7274C48.4486 19.0709 49.4537 20.2445 49.7396 22.0383C50.0976 24.2997 50.0819 26.5834 49.7396 28.8448C49.4789 30.5877 48.4675 31.7009 46.7212 32.0635C46.5672 32.0953 46.4102 32.1112 46.2594 32.1462C43.1248 32.8332 42.9709 33.2053 44.6984 35.8929C45.9328 37.814 45.9139 39.1816 44.6073 41.0041C43.4012 42.6898 41.947 44.1369 40.2949 45.3646C38.5234 46.6846 37.2576 46.6941 35.3982 45.4728C34.9585 45.1833 34.5564 44.8335 34.0947 44.5949C33.0205 44.0383 31.9526 44.455 31.8647 45.6604C31.5035 50.4981 28.9688 50.673 25.3034 50.7971C24.6783 50.8193 24.047 50.7939 23.422 50.7462C19.6089 50.4504 18.921 49.8302 18.1547 46.0294C17.7997 44.2705 16.8669 43.892 15.3467 44.8939C12.2372 46.939 11.2572 46.8754 8.44928 44.4168C7.25888 43.3736 6.18155 42.2222 5.2487 40.9373C4.70847 40.193 4.35983 39.382 4.33156 38.2402L4.32214 38.237ZM24.8699 49.299C27.8894 49.299 29.8189 47.8699 30.6586 45.0116C30.69 44.9098 30.7151 44.808 30.7497 44.7063C31.3213 43.1382 32.9891 42.4512 34.4559 43.2241C35.0558 43.5422 35.5898 43.9811 36.1614 44.35C37.4052 45.1547 38.6271 45.1802 39.7515 44.1338C40.7126 43.2368 41.6769 42.3367 42.5595 41.3667C44.8052 38.8954 44.8146 38.536 43.0275 35.772C41.545 33.482 42.2359 31.6818 44.8398 31.033C48.2853 30.1774 48.4926 29.9261 48.6434 26.3639C48.6622 25.8868 48.6591 25.4097 48.6528 24.9326C48.59 20.8711 48.4738 20.7184 44.5916 19.6942C44.4409 19.6529 44.2775 19.6529 44.1299 19.602C42.6066 19.0836 41.8339 17.3438 42.528 15.868C42.817 15.251 43.2316 14.6912 43.6305 14.1346C44.5162 12.8974 44.5194 11.7333 43.5394 10.5183C42.305 8.99162 40.9042 7.64942 39.3872 6.42808C38.4606 5.68383 37.4524 5.70609 36.4567 6.27541C35.9133 6.58711 35.4202 6.99104 34.8894 7.32818C33.0394 8.49545 31.2051 7.77028 30.6303 5.65202C29.8765 2.88705 28.0684 1.50244 25.206 1.4982C24.8385 1.4982 24.4742 1.4982 24.1067 1.4982C20.4821 1.51728 20.2308 1.71766 19.3671 5.31806C19.3042 5.57569 19.254 5.8365 19.166 6.08458C18.6101 7.6526 16.9329 8.33961 15.4598 7.57309C14.907 7.28366 14.4013 6.89245 13.8862 6.53304C12.545 5.59795 11.2384 5.60113 10.0354 6.74296C8.92984 7.79255 7.82424 8.85168 6.81287 9.99032C5.26127 11.7365 5.25184 12.5411 6.53647 14.4877C8.54037 17.5251 7.84937 19.2044 4.29701 19.9519C4.0426 20.0059 3.78818 20.0664 3.53063 20.1173C2.22716 20.3717 1.49218 21.1605 1.42937 22.5059C1.36027 23.9339 1.29431 25.3652 1.32886 26.7901C1.40424 29.8339 1.75916 30.2251 4.73359 30.9217C7.73001 31.6214 8.43986 33.4184 6.74063 36.001C6.56788 36.265 6.39513 36.5322 6.21296 36.7898C5.35549 38.0016 5.46857 39.1466 6.39827 40.2662C7.37823 41.443 8.41787 42.5594 9.56744 43.5676C11.6027 45.3519 12.2498 45.3837 14.5238 43.8221C16.9925 42.1236 18.7891 42.8329 19.4393 45.7686C20.1366 48.9046 20.5763 49.264 23.7832 49.2958C24.1506 49.299 24.515 49.2958 24.8825 49.2958L24.8699 49.299Z" fill="white"/>
<path d="M27.0902 16.5325C26.1009 22.5406 25.1115 28.5837 24.1095 34.6268C24.031 35.0975 23.8928 35.6573 23.2521 35.4982C22.6459 35.3488 22.7338 34.7953 22.8123 34.3183C23.7986 28.3261 24.7848 22.337 25.7774 16.3448C25.8622 15.8264 25.9187 15.1712 26.6537 15.3112C27.285 15.432 27.0902 16.0395 27.0934 16.5325H27.0902Z" fill="white"/>
<path d="M32.904 30.0882C32.5491 30.0469 32.3544 29.8847 32.2476 29.627C32.078 29.2199 32.2884 28.9019 32.5491 28.6379C33.3563 27.8173 34.1478 26.9744 35.0116 26.2143C35.6994 25.6068 35.6586 25.1647 34.9927 24.5795C34.1698 23.8543 33.4097 23.0528 32.6402 22.2672C32.2539 21.876 31.9178 21.4116 32.4486 20.9123C32.9574 20.4352 33.3061 20.9345 33.6233 21.2462C34.7415 22.3499 35.8345 23.479 36.9401 24.5954C37.4175 25.0788 37.54 25.5814 37.028 26.1062C35.8188 27.3402 34.6001 28.5679 33.3752 29.7893C33.2338 29.9292 33.0328 30.0087 32.904 30.0882Z" fill="white"/>
<path d="M17.0959 20.6704C17.2655 20.8008 17.4697 20.8867 17.5639 21.0425C17.8152 21.4687 17.6613 21.8599 17.3409 22.1844C16.6374 22.8936 15.9841 23.6697 15.202 24.2772C14.0932 25.1391 14.2754 25.7911 15.2648 26.5831C15.9966 27.1683 16.6248 27.8935 17.2907 28.5646C17.6519 28.9304 17.8812 29.3756 17.5105 29.8241C17.0582 30.3712 16.6594 29.9322 16.3327 29.6078C15.2114 28.501 14.1121 27.3687 13.0033 26.2523C12.5353 25.7816 12.3563 25.2504 12.8557 24.7256C14.0555 23.4725 15.2836 22.2512 16.5117 21.0266C16.6531 20.8867 16.8572 20.8104 17.0928 20.6672L17.0959 20.6704Z" fill="white"/>
</g>
<defs>
<clipPath id="clip0_671_370">
<rect width="50" height="50.8064" fill="white"/>
</clipPath>
</defs>
</svg>
