<svg width="50" height="36" viewBox="0 0 50 36" fill="none" xmlns="http://www.w3.org/2000/svg">
<g clip-path="url(#clip0_671_384)">
<path d="M24.8757 0C29.7641 0.258092 34.552 0.47823 39.2697 1.51566C43.5809 2.46453 46.2634 5.13907 47.1191 9.38747C48.2358 14.9162 49.1292 20.4956 49.9297 26.08C50.5094 30.1285 47.4002 34.301 43.4981 35.1081C39.1392 36.0089 34.9134 33.6355 33.754 29.4503C33.3776 28.089 32.813 27.7171 31.4629 27.7424C26.9937 27.8335 22.5194 27.8132 18.0501 27.7474C17.0138 27.7323 16.6072 28.0486 16.3513 29.048C15.5106 32.3273 13.3475 34.3617 10.1079 35.0955C6.72768 35.8622 3.93722 34.6906 1.77411 32.0186C0.203217 30.0829 -0.258514 27.8031 0.130444 25.3639C0.930946 20.3741 1.76156 15.3894 2.60974 10.4047C3.50309 5.16437 6.3588 2.33801 11.7766 1.29552C12.8406 1.09057 13.9146 0.926096 14.9862 0.769216C18.2961 0.285926 21.6386 0.222668 24.8757 0ZM24.9058 26.5835C27.3726 26.5835 29.8394 26.624 32.3061 26.5658C33.5558 26.538 34.2007 26.9757 34.4868 28.2636C35.3977 32.3526 38.9686 34.8045 42.8481 34.1137C46.8481 33.4002 49.4905 29.7515 48.8456 25.5562C48.0401 20.3083 47.1819 15.0655 46.143 9.86064C45.3902 6.093 43.1668 3.56268 39.2647 2.69985C36.1129 2.00148 32.936 1.63458 29.7264 1.39673C23.5633 0.938747 17.4504 1.29805 11.4077 2.55562C6.74776 3.52473 4.47674 5.9842 3.66118 10.6577C2.82053 15.4729 1.97988 20.2881 1.19192 25.1134C0.685024 28.2257 1.49556 30.9129 4.10284 32.8233C8.24337 35.8571 13.9974 33.7494 15.4404 28.7191C15.8486 27.2987 16.7887 26.5877 18.2609 26.586C20.4767 26.586 22.6925 26.586 24.9084 26.586L24.9058 26.5835Z" fill="white"/>
<path d="M14.9309 9.63803C15.4353 9.72406 15.4429 10.0935 15.4504 10.4199C15.4705 11.4725 15.4956 12.5276 15.4579 13.5803C15.4303 14.3292 15.6813 14.6556 16.4617 14.6202C17.4629 14.5721 18.4667 14.6 19.4705 14.6202C19.872 14.6303 20.4065 14.5848 20.3739 15.2047C20.3488 15.7158 19.872 15.6956 19.5056 15.7032C18.5445 15.7209 17.5809 15.7589 16.6223 15.7032C15.7716 15.6526 15.3977 15.9259 15.4529 16.8342C15.5131 17.8413 15.4755 18.856 15.4504 19.8681C15.4403 20.2299 15.4554 20.7082 14.8958 20.6576C14.4667 20.6196 14.4341 20.2299 14.4291 19.8858C14.419 18.8332 14.3864 17.7781 14.4316 16.7254C14.4667 15.9486 14.1606 15.6754 13.4102 15.7057C12.409 15.7462 11.4052 15.7234 10.4015 15.7057C9.99242 15.6981 9.46795 15.726 9.49807 15.1187C9.52065 14.6152 9.99493 14.6253 10.3663 14.6202C11.3701 14.605 12.3739 14.5696 13.3751 14.6202C14.2183 14.6658 14.4742 14.3115 14.4341 13.5069C14.3839 12.4973 14.424 11.4852 14.4291 10.473C14.4291 10.0758 14.4943 9.71394 14.9309 9.6355V9.63803Z" fill="white"/>
<path d="M38.6826 14.3975C36.9988 14.3621 35.7165 12.9983 35.7617 11.2903C35.8068 9.57729 37.1167 8.31719 38.8357 8.3349C40.5622 8.35261 41.8118 9.63548 41.8043 11.3789C41.7968 13.1703 40.4894 14.4355 38.6826 14.3975ZM40.7554 11.4016C40.7755 10.3111 39.8595 9.3951 38.7604 9.41282C37.7065 9.428 36.8457 10.2832 36.8282 11.3333C36.8081 12.3809 37.6362 13.264 38.6926 13.3196C39.7842 13.3778 40.7328 12.4947 40.7554 11.4016Z" fill="white"/>
<path d="M33.739 21.991C32.0477 21.9809 30.7428 20.6601 30.7428 18.9572C30.7428 17.2543 32.0477 15.936 33.7415 15.9258C35.5132 15.9157 36.8181 17.2467 36.7829 19.0229C36.7478 20.7512 35.4655 22.0011 33.739 21.991ZM33.7365 20.9131C34.7829 20.9333 35.6813 20.0983 35.7365 19.0558C35.7942 17.9703 34.9034 17.024 33.8068 16.9987C32.7152 16.9759 31.7942 17.8919 31.8093 18.9825C31.8244 20.0351 32.6801 20.8903 33.7365 20.9106V20.9131Z" fill="white"/>
</g>
<defs>
<clipPath id="clip0_671_384">
<rect width="50" height="35.3333" fill="white"/>
</clipPath>
</defs>
</svg>
