<svg width="300" height="26" viewBox="0 0 300 26" fill="none" xmlns="http://www.w3.org/2000/svg">
<path d="M68.5903 3.95432C67.5953 4.71125 67.1626 5.04024 66.7081 5.38613C67.0861 5.91381 67.6018 5.61538 68.0064 5.56711C87.6214 3.21991 107.329 2.19753 127.056 1.50013C167.566 0.0683166 208.083 -0.958083 248.593 1.40762C264.882 2.35921 281.167 3.46766 297.214 6.69728C298.156 6.88712 299.092 7.11074 300 7.5258C296.146 7.21048 292.296 6.83242 288.438 6.59191C272.913 5.62503 257.425 6.71659 241.942 7.60624C214.365 9.19008 186.752 9.50862 159.147 10.1956C128.457 10.9589 97.7599 11.7408 67.235 15.4579C51.8213 17.3353 36.55 20.0099 21.4242 23.5178C17.0572 24.5306 12.6339 25.1097 8.15585 25.2272C6.77954 25.2634 5.38553 25.2376 4.02371 25.0599C2.21544 24.8234 0.328346 24.4011 0.0315263 22.1785C-0.265293 19.9552 1.59204 19.4259 3.15336 18.7237C20.4928 10.9259 38.7033 6.41574 57.5582 4.38306C60.6205 4.05326 63.7166 4.02671 66.7974 3.87146C67.1738 3.85216 67.5543 3.90364 68.5903 3.95432Z" fill="#4361EE"/>
</svg>
