<svg width="50" height="31" viewBox="0 0 50 31" fill="none" xmlns="http://www.w3.org/2000/svg">
<g clip-path="url(#clip0_671_389)">
<path d="M24.8932 30.4055C18.5406 30.4055 12.1855 30.4055 5.83295 30.4055C1.96517 30.403 0.00744193 28.4503 0.0024221 24.588C-0.00259773 18.3287 -0.00259773 12.0719 0.0024221 5.81252C0.00744193 2.01121 1.97772 0.00263689 5.71499 0.00263689C18.5883 9.76005e-05 31.4617 9.76005e-05 44.335 0.00263689C47.9694 0.00263689 49.9899 2.05946 49.9949 5.75412C50.0024 12.0541 50.0024 18.3566 49.9949 24.6566C49.9899 28.3487 47.9669 30.3979 44.3275 30.4004C37.8494 30.4055 31.3713 30.4004 24.8907 30.4004L24.8932 30.4055ZM25.5031 15.1012C25.5031 19.3317 25.5333 23.5647 25.4806 27.7951C25.468 28.8565 25.6814 29.2476 26.8434 29.2349C32.7819 29.1689 38.7204 29.207 44.6588 29.2019C47.4122 29.2019 48.9056 27.7012 48.9407 24.8876C48.9658 22.8562 48.9457 20.8248 48.9457 18.7959C48.9457 14.3521 48.9658 9.91093 48.9357 5.46718C48.9181 2.72983 47.3921 1.2088 44.7316 1.20626C38.7505 1.19864 32.7719 1.23165 26.7907 1.17833C25.719 1.16817 25.4655 1.50589 25.4806 2.53684C25.5333 6.72413 25.5031 10.9139 25.5031 15.1038V15.1012ZM24.4565 15.2206C24.4565 10.9063 24.4389 6.59208 24.4716 2.2753C24.4766 1.46527 24.2557 1.18087 23.4174 1.18594C17.2305 1.21642 11.041 1.18594 4.85409 1.21388C2.64536 1.22403 1.08169 2.80093 1.06914 5.09898C1.03149 11.8255 1.03149 18.5496 1.06914 25.2761C1.08169 27.6783 2.6805 29.1943 5.07245 29.1993C11.1364 29.212 17.1978 29.1765 23.2593 29.2298C24.3185 29.24 24.4816 28.8388 24.4741 27.9119C24.4364 23.6815 24.4565 19.451 24.4565 15.2206Z" fill="white"/>
<path d="M36.2682 11.3607C34.7623 11.3607 33.2563 11.3556 31.7504 11.3607C31.2986 11.3607 30.8142 11.2819 30.8117 10.7614C30.8091 10.2383 31.291 10.1545 31.7428 10.157C33.166 10.1621 34.5866 10.124 36.0072 10.1723C36.7576 10.1977 37.1065 9.97166 37.0111 9.17941C36.976 8.88739 36.9986 8.58521 37.0312 8.29319C37.0664 7.96817 37.2546 7.70408 37.5909 7.72947C37.8545 7.74725 37.9649 8.00879 38.0251 8.27796C38.1582 8.87723 37.724 9.74567 38.3263 10.0351C38.9137 10.317 39.7168 10.1494 40.4246 10.157C41.4286 10.1697 42.4326 10.157 43.4365 10.1646C43.8406 10.1646 44.2271 10.2637 44.2447 10.7563C44.2598 11.1702 43.941 11.3657 43.5746 11.3454C42.9596 11.3149 42.8116 11.7085 42.676 12.1859C41.9532 14.7049 40.766 16.9674 38.9513 18.8592C38.4769 19.3543 38.6175 19.6032 39.1245 19.8952C40.0707 20.4335 41.0044 20.9972 41.9356 21.5635C42.2619 21.7616 42.6108 21.9977 42.3221 22.4649C42.0259 22.9423 41.6695 22.6757 41.3483 22.4929C40.3292 21.9139 39.2826 21.3705 38.3138 20.7103C37.739 20.3193 37.3475 20.2989 36.7627 20.7027C35.7989 21.368 34.7522 21.9114 33.7332 22.4878C33.4245 22.663 33.048 22.9728 32.7694 22.47C32.4807 21.9495 32.8623 21.7133 33.2563 21.5C33.9541 21.1191 34.6543 20.7408 35.342 20.337C36.7049 19.5346 36.6999 19.5295 35.6131 18.4554C34.9555 17.8054 34.2879 17.1655 33.6353 16.5078C33.3216 16.1929 33.058 15.8146 33.4922 15.4235C33.9039 15.0502 34.18 15.4565 34.436 15.7079C35.2442 16.5052 36.0498 17.3051 36.8279 18.1329C37.3023 18.6382 37.6788 18.6509 38.1783 18.1329C39.8649 16.3935 40.8814 14.2935 41.5892 12.0006C41.8201 11.2489 41.3031 11.3683 40.909 11.3657C39.3629 11.3556 37.8143 11.3607 36.2657 11.3607H36.2682Z" fill="white"/>
<path d="M12.3789 18.9785C12.2961 18.9785 12.2107 18.9912 12.1279 18.9785C9.70583 18.5646 7.90622 19.1385 7.41679 21.919C7.35153 22.2948 7.15074 22.8408 6.58099 22.5742C6.09658 22.3482 6.36765 21.914 6.50318 21.5788C8.27267 17.1934 10.0497 12.8132 11.8292 8.43035C11.9547 8.1231 12.0375 7.71427 12.4316 7.70157C12.8432 7.68634 12.9235 8.10786 13.044 8.4075C14.8235 12.7878 16.6006 17.1706 18.3675 21.5559C18.5031 21.8936 18.7616 22.3279 18.2973 22.564C17.7074 22.8662 17.6321 22.2695 17.4489 21.9292C16.952 21.0074 16.9294 19.5169 16.086 19.1817C15.0043 18.7525 13.6288 19.0776 12.3814 19.0776C12.3814 19.0446 12.3814 19.0116 12.3814 18.9785H12.3789ZM12.5998 10.0352L12.2785 10.0301C11.3323 12.4069 10.386 14.7811 9.43978 17.1553C9.26158 17.6022 9.43225 17.7724 9.87651 17.7724C11.7439 17.7673 13.6113 17.7724 15.6819 17.7724C14.6102 15.0833 13.6062 12.5592 12.5998 10.0352Z" fill="white"/>
</g>
<defs>
<clipPath id="clip0_671_389">
<rect width="50" height="30.4054" fill="white"/>
</clipPath>
</defs>
</svg>
