<svg width="50" height="49" viewBox="0 0 50 49" fill="none" xmlns="http://www.w3.org/2000/svg">
<path d="M38.333 30.4441C36.7633 30.446 35.1933 30.4202 33.6245 30.4511C30.2286 30.5179 28.0581 33.402 29.0526 36.5627C29.3727 37.5802 29.8723 38.543 30.2615 39.5414C30.8768 41.1204 31.4122 42.7068 30.9455 44.4413C30.2109 47.1711 28.1601 48.754 25.2627 48.779C12.2651 48.8919 1.21629 39.1346 0.0957034 26.5538C-1.03934 13.8088 8.04182 2.38931 20.9555 0.322657C36.0183 -2.08824 49.9176 9.32231 49.9999 24.1667C50.02 27.7674 47.3723 30.2897 43.3551 30.4327C41.6831 30.4921 40.0074 30.4425 38.333 30.4444V30.4441ZM38.392 28.9975C40.407 28.9975 42.0831 29.0319 43.7567 28.9901C46.7169 28.9158 48.7383 26.8336 48.6821 23.9729C48.4017 9.67242 34.7206 -1.01877 20.3253 1.81296C8.42338 4.15392 0.0800392 15.1366 1.43157 26.6843C2.86021 38.8912 13.2977 47.7228 25.8354 47.3328C27.6316 47.277 29.0502 46.1712 29.6028 44.4148C30.0776 42.9057 29.7105 41.5061 29.0883 40.1177C28.608 39.0467 28.1003 37.9757 27.7569 36.8605C26.7038 33.4407 28.7493 30.0779 32.3199 29.2374C34.4422 28.7377 36.5979 29.1483 38.3924 28.9975H38.392Z" fill="#4361EE"/>
<path d="M9.4386 16.0149C9.41611 13.9701 11.0653 12.2645 13.1269 12.2009C15.1845 12.1372 17.0268 13.9436 17.006 16.004C16.9855 18.0073 15.2303 19.7387 13.2165 19.7415C11.1745 19.7442 9.46149 18.0546 9.4386 16.0149ZM13.2217 18.3C14.5933 18.2949 15.6307 17.3349 15.6697 16.0341C15.7103 14.6868 14.6218 13.6345 13.1948 13.6423C11.8163 13.6497 10.7945 14.5996 10.7572 15.9082C10.7182 17.2712 11.7838 18.3055 13.2213 18.3H13.2217Z" fill="#4361EE"/>
<path d="M34.5648 15.9633C34.5688 13.9244 36.2589 12.2247 38.3069 12.2004C40.3762 12.1762 42.1836 13.9979 42.1305 16.0544C42.0783 18.0683 40.2999 19.7762 38.2916 19.741C36.2405 19.7051 34.5612 18.003 34.5652 15.9633H34.5648ZM40.7991 16.0153C40.8264 14.7313 39.8091 13.6993 38.4599 13.6427C37.0216 13.5821 35.9107 14.5668 35.8838 15.9262C35.8577 17.2278 36.8501 18.2386 38.2121 18.298C39.6496 18.3605 40.7706 17.3712 40.7995 16.0153H40.7991Z" fill="#4361EE"/>
<path d="M21.9956 9.83292C22.0084 7.7983 23.717 6.10442 25.7634 6.09622C27.7816 6.0884 29.5501 7.80925 29.5798 9.80986C29.6103 11.8609 27.7684 13.6763 25.7088 13.6243C23.6491 13.5727 21.9823 11.871 21.9956 9.83292ZM28.2339 9.91927C28.2708 8.63684 27.2579 7.59551 25.912 7.53143C24.4701 7.46265 23.3579 8.43639 23.321 9.7997C23.2856 11.1017 24.2709 12.1192 25.632 12.1864C27.0727 12.2575 28.1945 11.2798 28.2339 9.91966V9.91927Z" fill="#4361EE"/>
<path d="M6.29034 28.1691C6.30279 26.1344 8.01058 24.4402 10.057 24.4312C12.0744 24.4226 13.844 26.1434 13.8742 28.1437C13.9051 30.1951 12.0644 32.0101 10.0043 31.9593C7.94471 31.9085 6.27749 30.2068 6.28994 28.1691H6.29034ZM10.0192 30.5233C11.4499 30.5479 12.5512 29.5144 12.5319 28.1651C12.5138 26.873 11.4776 25.8871 10.1148 25.866C8.67731 25.8437 7.59568 26.8632 7.61376 28.2242C7.63103 29.5277 8.64799 30.4999 10.0192 30.5237V30.5233Z" fill="#4361EE"/>
</svg>
